<?xml version="1.0" encoding="UTF-8" standalone="no"?>
<!-- Created with Inkscape (http://www.inkscape.org/) -->
<svg
   xmlns:dc="http://purl.org/dc/elements/1.1/"
   xmlns:cc="http://creativecommons.org/ns#"
   xmlns:rdf="http://www.w3.org/1999/02/22-rdf-syntax-ns#"
   xmlns:svg="http://www.w3.org/2000/svg"
   xmlns="http://www.w3.org/2000/svg"
   xmlns:xlink="http://www.w3.org/1999/xlink"
   xmlns:sodipodi="http://sodipodi.sourceforge.net/DTD/sodipodi-0.dtd"
   xmlns:inkscape="http://www.inkscape.org/namespaces/inkscape"
   width="574"
   height="574"
   id="svg2"
   sodipodi:version="0.32"
   inkscape:version="0.46"
   sodipodi:docname="U.S. Coast Guard Auxiliary with paths.svg"
   inkscape:output_extension="org.inkscape.output.svg.inkscape"
   version="1.0">
  <sodipodi:namedview
     id="base"
     pagecolor="#ffffff"
     bordercolor="#666666"
     borderopacity="1.0"
     gridtolerance="10000"
     guidetolerance="10"
     objecttolerance="10"
     inkscape:pageopacity="0.0"
     inkscape:pageshadow="0"
     inkscape:zoom="1"
     inkscape:cx="287"
     inkscape:cy="287"
     inkscape:document-units="px"
     inkscape:current-layer="layer2" />
  <defs
     id="defs4" />
  <metadata
     id="metadata7">
    <rdf:RDF>
      <cc:Work
         rdf:about="">
        <dc:format>image/svg+xml</dc:format>
        <dc:type
           rdf:resource="http://purl.org/dc/dcmitype/StillImage" />
        <cc:license
           rdf:resource="http://creativecommons.org/licenses/by-sa/3.0/" />
        <dc:title>U.S. Coast Guard Auxiliary Seal</dc:title>
        <dc:date>11-08-2009</dc:date>
        <dc:source>USCG Auxiliary Style Usage Guide - Official Imagery</dc:source>
      </cc:Work>
      <cc:License
         rdf:about="http://creativecommons.org/licenses/by-sa/3.0/">
        <cc:permits
           rdf:resource="http://creativecommons.org/ns#Reproduction" />
        <cc:permits
           rdf:resource="http://creativecommons.org/ns#Distribution" />
        <cc:requires
           rdf:resource="http://creativecommons.org/ns#Notice" />
        <cc:requires
           rdf:resource="http://creativecommons.org/ns#Attribution" />
        <cc:permits
           rdf:resource="http://creativecommons.org/ns#DerivativeWorks" />
        <cc:requires
           rdf:resource="http://creativecommons.org/ns#ShareAlike" />
      </cc:License>
    </rdf:RDF>
  </metadata>
  <g
     inkscape:groupmode="layer"
     id="layer2"
     inkscape:label="Vector"
     style="opacity:1;display:inline"
     transform="translate(-57.353283,-58.374991)">
    <g
       id="g6501"
       transform="translate(-2.7848886,-0.9105283)">
      <g
         id="g3739"
         transform="translate(2.2744055,1)">
        <path
           d="M 616.14673,344.95113 C 616.14673,444.30515 567.06734,528.96636 480.67174,578.64336 C 394.27615,628.32035 296.11734,628.32035 209.72174,578.64336 C 123.32615,528.96636 74.24674,444.30515 74.24674,344.95113 C 74.24674,245.59708 123.32615,160.93587 209.72174,111.25887 C 296.11734,61.581872 394.27615,61.581872 480.67174,111.25887 C 567.06734,160.93587 616.14673,245.59708 616.14673,344.95113 C 616.14673,344.95113 616.14673,344.95113 616.14673,344.95113"
           id="path10457"
           style="opacity:1;fill:#009cdc;fill-opacity:1;fill-rule:evenodd;stroke:none;stroke-width:15;stroke-linecap:butt;stroke-linejoin:round;stroke-miterlimit:4;stroke-dasharray:none;stroke-opacity:1;display:inline" />
        <path
           id="path5052"
           d="M 353.75,60.375 C 350.19602,60.371125 346.68326,61.576903 343.8125,64.875 C 338.22944,61.698175 325.33396,56.680603 318.59375,66.15625 C 312.82476,63.52873 299.81557,59.823656 293.8125,69.875 C 287.91429,67.780185 274.3655,65.121352 269.3125,75.78125 C 263.26729,74.22643 249.52661,72.788428 245.46875,83.78125 C 239.16425,82.790817 225.37292,82.667673 222.375,93.90625 C 216.06889,93.43123 202.63802,94.453338 200.46875,105.9375 C 194.22796,105.93491 180.57532,107.94337 179.375,119.59375 C 173.00805,120.19255 159.57207,123.50161 159.46875,135.125 C 153.2235,136.26294 140.44766,140.66835 141.28125,152.34375 C 135.22668,153.98844 122.5175,159.53876 124.5,171.1875 C 118.63064,173.39412 106.49413,180.10479 109.53125,191.4375 C 103.80034,194.30761 92.456519,202.23649 96.5625,213.125 C 91.106942,216.53739 80.544574,225.52426 85.71875,235.9375 C 80.669627,239.7737 71.248227,249.49289 77.28125,259.53125 C 72.644162,263.72925 63.85285,274.41515 70.875,283.90625 C 66.638979,288.50011 58.840196,299.95734 66.625,308.71875 C 62.748643,313.82283 56.085435,325.93979 64.625,333.875 C 61.215141,339.21583 55.760841,351.49198 64.8125,358.8125 C 61.855232,364.31 57.138035,377.36407 66.90625,383.90625 C 64.427589,389.83233 60.997481,403.25714 71.25,408.78125 C 69.322299,414.83376 67.181712,428.17051 77.875,432.90625 C 76.491183,439.02237 75.428175,452.86293 86.65625,456.5625 C 85.858154,462.77004 86.111005,476.66433 97.5625,479.28125 C 97.417933,485.68506 99.125,499.42161 110.6875,500.875 C 111.14923,507.28943 114.14861,520.83061 125.78125,521.125 C 126.8085,527.38118 130.97128,540.22355 142.625,539.625 C 144.15455,545.69051 149.49169,558.45738 161.15625,556.71875 C 163.20613,562.61226 169.61054,574.89014 181,572.15625 C 183.59212,577.88926 190.94249,589.19129 202.09375,585.625 C 205.09763,591.10995 213.44512,602.08617 224.3125,597.46875 C 227.76148,602.68477 237.00905,613.0491 247.375,607.53125 C 251.33372,612.45553 261.25182,621.57138 271.15625,615.28125 C 275.45472,619.80075 286.37554,628.33144 295.71875,621.0625 C 300.44173,625.1757 312.15296,632.66531 320.71875,624.53125 C 325.82081,628.18219 338.2,634.57102 345.90625,625.71875 C 351.49349,628.89579 364.38785,633.90807 371.125,624.4375 C 376.89553,627.06435 389.87215,630.72824 395.875,620.6875 C 401.75452,622.78452 415.34474,625.46879 420.40625,614.78125 C 426.46181,616.33416 440.1966,617.76199 444.25,606.78125 C 450.5545,607.77168 464.34584,607.89483 467.34375,596.65625 C 473.64431,597.13084 487.0628,596.11195 489.25,584.65625 C 495.4933,584.65884 509.15301,582.63158 510.34375,570.96875 C 516.7169,570.3691 530.17058,567.08549 530.25,555.4375 C 536.49174,554.3002 549.22402,549.91064 548.40625,538.25 C 554.44512,536.61737 567.19463,531.06883 565.21875,519.40625 C 571.08514,517.20074 583.20776,510.47862 580.1875,499.15625 C 585.92398,496.28334 597.26518,488.34232 593.125,477.4375 C 598.58057,474.02509 609.17417,465.03823 604,454.625 C 609.05504,450.77631 618.46105,441.08509 612.4375,431.0625 C 617.07592,426.86331 625.87692,416.14935 618.84375,406.65625 C 623.08263,402.05037 630.85288,390.62208 623.09375,381.875 C 626.96805,376.77364 633.61249,364.65423 625.09375,356.71875 C 628.5042,351.38266 633.97794,339.07514 624.90625,331.75 C 627.86374,326.23993 632.55844,313.22178 622.8125,306.6875 C 625.29149,300.77602 628.72963,287.34658 618.46875,281.8125 C 620.39701,275.76746 622.53557,262.42959 611.84375,257.6875 C 613.23002,251.58944 614.28955,237.74534 603.0625,234.03125 C 603.86047,227.82328 603.6072,213.9293 592.15625,211.3125 C 592.3008,204.90899 590.59231,191.17322 579.03125,189.71875 C 578.5697,183.30456 575.571,169.73156 563.9375,169.4375 C 562.90556,163.17069 558.73174,150.31462 547.0625,150.9375 C 545.52946,144.868 540.21837,132.10836 528.5625,133.84375 C 526.50161,127.93511 520.08243,115.67521 508.6875,118.4375 C 506.08855,112.69596 498.75345,101.37649 487.59375,104.96875 C 484.59916,99.49104 476.28416,88.475597 465.40625,93.09375 C 461.94651,87.871037 452.69613,77.55187 442.34375,83.0625 C 438.38307,78.135783 428.44051,68.972657 418.53125,75.28125 C 414.21255,70.753806 403.32216,62.278689 394,69.53125 C 389.27812,65.419027 377.56527,57.90642 369,66.03125 C 365.80125,63.740187 359.74268,60.381534 353.75,60.375 z M 342.125,67.21875 C 341.92866,67.540639 341.71822,67.869552 341.53125,68.21875 L 367.15625,68.125 C 366.92252,68.432553 366.66431,68.72555 366.4375,69.0625 L 391.96875,71.40625 C 391.70364,71.690667 391.41733,71.966682 391.15625,72.28125 L 416.34375,76.9375 C 416.05348,77.193174 415.75796,77.433229 415.46875,77.71875 L 439.875,84.625 C 439.58083,84.852711 439.29516,85.088022 439,85.34375 L 462.96875,94.375 C 462.62873,94.587634 462.31293,94.786436 461.96875,95.03125 L 485.0625,106.0625 C 484.71538,106.23799 484.35364,106.38883 484,106.59375 L 505.9375,119.34375 C 505.58321,119.49584 505.2378,119.63148 504.875,119.8125 L 525.875,134.5 C 525.49392,134.62105 525.11182,134.72392 524.71875,134.875 L 544.34375,151.34375 C 543.96467,151.42515 543.58039,151.48553 543.1875,151.59375 L 561.03125,169.625 C 560.66734,169.67881 560.31576,169.73492 559.9375,169.8125 L 576.125,189.59375 C 575.75421,189.6107 575.38762,189.61677 575,189.65625 L 589.3125,210.90625 C 588.92251,210.88353 588.53609,210.87498 588.125,210.875 L 600.40625,233.40625 C 600.01019,233.34189 599.60803,233.26153 599.1875,233.21875 L 609.21875,256.78125 C 608.85231,256.68459 608.48354,256.57984 608.09375,256.5 L 615.8125,280.65625 C 615.46121,280.53822 615.12516,280.41567 614.75,280.3125 L 620.3125,305.3125 C 619.95298,305.14979 619.60667,304.99254 619.21875,304.84375 L 622.625,330.21875 C 622.27748,330.01932 621.94022,329.81295 621.5625,329.625 L 622.8125,354.9375 C 622.50224,354.73443 622.18081,354.53848 621.84375,354.34375 L 621,379.90625 C 620.69336,379.6598 620.39991,379.39634 620.0625,379.15625 L 617,404.59375 C 616.71848,404.31859 616.43762,404.05301 616.125,403.78125 L 610.8125,428.8125 C 610.56369,428.51646 610.31005,428.23319 610.03125,427.9375 L 602.46875,452.125 C 602.25397,451.83314 602.05415,451.54337 601.8125,451.25 L 591.875,474.8125 C 591.69152,474.50198 591.52215,474.18961 591.3125,473.875 L 579.1875,496.4375 C 579.02764,496.08807 578.87631,495.73218 578.6875,495.375 L 564.53125,516.71875 C 564.40623,516.35078 564.27855,516.00375 564.125,515.625 L 547.96875,535.5 C 547.88295,535.13314 547.83,534.75444 547.71875,534.375 L 529.96875,552.53125 C 529.90868,552.16931 529.86507,551.81321 529.78125,551.4375 L 510.375,568.09375 C 510.34968,567.70405 510.33159,567.31401 510.28125,566.90625 L 489.53125,581.90625 C 489.54342,581.50548 489.57465,581.10944 489.5625,580.6875 L 467.84375,593.78125 C 467.87656,593.41172 467.92467,593.04542 467.9375,592.65625 L 445,604 C 445.07156,603.61852 445.16672,603.24864 445.21875,602.84375 L 421.375,612.1875 C 421.48298,611.81527 421.5966,611.42841 421.6875,611.03125 L 397.125,618.1875 C 397.26479,617.83707 397.40517,617.50034 397.53125,617.125 L 372.59375,621.90625 C 372.75386,621.57194 372.91426,621.26605 373.0625,620.90625 L 347.59375,623.34375 C 347.78843,623.02425 348.00204,622.72138 348.1875,622.375 L 322.53125,622.46875 C 322.77389,622.15091 323.04604,621.84944 323.28125,621.5 L 297.75,619.1875 C 298.01353,618.90458 298.2717,618.62522 298.53125,618.3125 L 273.375,613.625 C 273.65991,613.37351 273.93488,613.12401 274.21875,612.84375 L 249.78125,605.9375 C 250.08593,605.70264 250.38175,605.48365 250.6875,605.21875 L 226.71875,596.21875 C 227.06237,596.00418 227.40213,595.77869 227.75,595.53125 L 204.6875,584.53125 C 205.02667,584.3592 205.37336,584.20014 205.71875,584 L 183.75,571.25 C 184.11401,571.09445 184.47074,570.93611 184.84375,570.75 L 163.84375,556.09375 C 164.22483,555.9727 164.60693,555.86983 165,555.71875 L 145.375,539.25 C 145.75479,539.16849 146.13759,539.07718 146.53125,538.96875 L 128.71875,520.96875 C 129.07293,520.9158 129.41351,520.85668 129.78125,520.78125 L 113.59375,501 C 113.9648,500.98305 114.33084,500.94576 114.71875,500.90625 L 100.40625,479.6875 C 100.78652,479.70906 101.16222,479.71876 101.5625,479.71875 L 89.34375,457.21875 C 89.729124,457.28068 90.122778,457.33345 90.53125,457.375 L 80.46875,433.8125 C 80.842692,433.91164 81.226683,434.01216 81.625,434.09375 L 73.90625,409.90625 C 74.257544,410.02428 74.593594,410.14683 74.96875,410.25 L 69.4375,385.28125 C 69.783684,385.43692 70.127632,385.60717 70.5,385.75 L 67.09375,360.375 C 67.441272,360.57443 67.778535,360.7808 68.15625,360.96875 L 66.90625,335.65625 C 67.214091,335.85753 67.509557,336.05693 67.84375,336.25 L 68.71875,310.6875 C 69.023966,310.93265 69.320569,311.16739 69.65625,311.40625 L 72.6875,285.96875 C 72.978258,286.25421 73.269563,286.53069 73.59375,286.8125 L 78.90625,261.78125 C 79.150777,262.07153 79.382874,262.36632 79.65625,262.65625 L 87.25,238.40625 C 87.471877,238.70909 87.655452,239.00803 87.90625,239.3125 L 97.8125,215.75 C 98.002132,216.07254 98.188375,216.39179 98.40625,216.71875 L 110.5,194.15625 C 110.65879,194.5029 110.81273,194.83322 111,195.1875 L 125.1875,173.84375 C 125.3133,174.2146 125.43896,174.58695 125.59375,174.96875 L 141.71875,155.0625 C 141.80625,155.43937 141.88561,155.82859 142,156.21875 L 159.71875,138.03125 C 159.77993,138.40396 159.81983,138.76891 159.90625,139.15625 L 179.34375,122.46875 C 179.36908,122.86514 179.38625,123.24114 179.4375,123.65625 L 200.1875,108.6875 C 200.17623,109.07852 200.14441,109.46388 200.15625,109.875 L 221.875,96.78125 C 221.84066,97.160927 221.79445,97.537033 221.78125,97.9375 L 244.71875,86.59375 C 244.64719,86.975227 244.55203,87.345111 244.5,87.75 L 268.34375,78.40625 C 268.23682,78.775557 268.12139,79.137418 268.03125,79.53125 L 292.59375,72.375 C 292.45261,72.728292 292.31468,73.09012 292.1875,73.46875 L 317.125,68.6875 C 316.96769,69.016748 316.80207,69.333582 316.65625,69.6875 L 342.125,67.21875 z M 337.53125,79.34375 L 313.125,82.625 C 313.35795,82.15583 313.56882,81.671821 313.78125,81.15625 L 289.8125,86.6875 C 289.9939,86.20563 290.1554,85.712289 290.3125,85.1875 L 266.9375,92.875 C 267.07178,92.375209 267.17588,91.853473 267.28125,91.3125 L 244.46875,101.1875 C 244.57243,100.66997 244.67835,100.12012 244.75,99.5625 L 223,111.25 C 223.05159,110.74338 223.10716,110.22863 223.125,109.6875 L 202.4375,123.0625 C 202.44213,122.55392 202.4386,122.04015 202.40625,121.5 L 182.71875,136.71875 C 182.69107,136.18156 182.66404,135.6319 182.59375,135.0625 L 164.4375,151.75 C 164.36006,151.2382 164.27618,150.72504 164.15625,150.1875 L 147.59375,168.4375 C 147.46477,167.9267 147.33199,167.40824 147.15625,166.875 L 132.34375,186.5625 C 132.16204,186.05869 131.98246,185.55351 131.75,185.03125 L 118.75,206.21875 C 118.53306,205.72729 118.26758,205.22496 118,204.71875 L 107.1875,226.875 C 106.92427,226.41258 106.65822,225.94067 106.34375,225.46875 L 97.65625,248.53125 C 97.354843,248.1087 97.038647,247.6763 96.6875,247.25 L 90.21875,270.96875 C 89.876632,270.57815 89.486179,270.2019 89.09375,269.8125 L 84.84375,294.0625 C 84.460911,293.7027 84.059542,293.35352 83.625,293 L 81.5,317.78125 C 81.089295,317.4424 80.649768,317.11018 80.1875,316.78125 L 80.15625,341.40625 C 79.742669,341.12882 79.301678,340.8583 78.84375,340.59375 L 80.875,365.1875 C 80.415511,364.93558 79.914026,364.6705 79.40625,364.4375 L 83.53125,388.9375 C 83.056078,388.71633 82.552353,388.51238 82.03125,388.3125 L 88.21875,412.15625 C 87.732991,411.9859 87.246685,411.83268 86.71875,411.6875 L 95,434.875 C 94.496894,434.7528 93.980822,434.62374 93.4375,434.53125 L 103.9375,456.84375 C 103.40523,456.76845 102.85386,456.69503 102.28125,456.65625 L 114.9375,478.0625 C 114.40075,478.0245 113.85485,477.99998 113.28125,478 L 127.8125,497.90625 C 127.27491,497.92255 126.72695,497.94187 126.15625,498 L 142.46875,516.46875 C 141.95495,516.53743 141.41533,516.60793 140.875,516.71875 L 158.8125,533.59375 C 158.30904,533.71267 157.80709,533.83634 157.28125,534 L 176.6875,549.1875 C 176.18841,549.35696 175.67426,549.56273 175.15625,549.78125 L 196,563.3125 C 195.51607,563.51282 195.03021,563.71979 194.53125,563.96875 L 216.25,575.6875 C 215.79856,575.9265 215.33659,576.18196 214.875,576.46875 L 237.4375,586.34375 C 237.00359,586.62758 236.56489,586.94693 236.125,587.28125 L 259.65625,595.25 C 259.24132,595.56223 258.82403,595.91928 258.40625,596.28125 L 282.34375,602.125 C 281.96609,602.47195 281.56287,602.82299 281.1875,603.21875 L 305.5625,606.84375 C 305.21142,607.23566 304.8436,607.65051 304.5,608.09375 L 329.125,609.4375 C 328.80299,609.87639 328.49598,610.31922 328.1875,610.8125 L 353,609.8125 C 352.71636,610.26315 352.45532,610.74979 352.1875,611.25 L 376.59375,607.9375 C 376.36065,608.40692 376.1188,608.89037 375.90625,609.40625 L 399.9375,603.875 C 399.75095,604.36787 399.56729,604.8683 399.40625,605.40625 L 422.78125,597.6875 C 422.6469,598.18749 422.51167,598.70879 422.40625,599.25 L 445.25,589.375 C 445.1438,589.90143 445.04174,590.46323 444.96875,591.03125 L 466.71875,579.34375 C 466.66716,579.85037 466.61159,580.36512 466.59375,580.90625 L 487.28125,567.5 C 487.27579,568.01811 487.2795,568.5428 487.3125,569.09375 L 506.96875,553.90625 C 506.99667,554.43406 507.05601,554.97241 507.125,555.53125 L 525.28125,538.8125 C 525.35869,539.3243 525.44257,539.83746 525.5625,540.375 L 542.125,522.15625 C 542.25398,522.66705 542.38676,523.18551 542.5625,523.71875 L 557.34375,504.03125 C 557.52319,504.52677 557.74026,505.01791 557.96875,505.53125 L 570.96875,484.375 C 571.18554,484.86605 571.4514,485.33798 571.71875,485.84375 L 582.5,463.6875 C 582.76336,464.15019 583.06034,464.62155 583.375,465.09375 L 592.0625,442.03125 C 592.36782,442.4603 592.67465,442.91084 593.03125,443.34375 L 599.53125,419.59375 C 599.86907,419.97861 600.20707,420.36631 600.59375,420.75 L 604.875,396.5 C 605.25784,396.8598 605.65921,397.20898 606.09375,397.5625 L 608.21875,372.78125 C 608.62946,373.1201 609.06898,373.45232 609.53125,373.78125 L 609.5625,349.1875 C 609.97561,349.46456 610.41766,349.70453 610.875,349.96875 L 608.84375,325.40625 C 609.3024,325.65762 609.77451,325.89247 610.28125,326.125 L 606.1875,301.59375 C 606.66589,301.81673 607.16249,302.04863 607.6875,302.25 L 601.5,278.40625 C 601.98576,278.5766 602.47207,278.72982 603,278.875 L 594.6875,255.71875 C 595.19043,255.84089 595.70688,255.9388 596.25,256.03125 L 585.8125,233.75 C 586.33557,233.82325 586.87556,233.89944 587.4375,233.9375 L 574.78125,212.53125 C 575.318,212.56925 575.8639,212.59377 576.4375,212.59375 L 561.90625,192.6875 C 562.43507,192.67079 563.0017,192.61962 563.5625,192.5625 L 547.25,174.125 C 547.76307,174.05636 548.27298,173.95441 548.8125,173.84375 L 530.875,157 C 531.38783,156.87963 531.90141,156.72935 532.4375,156.5625 L 513.03125,141.375 C 513.52711,141.20636 514.04797,141.02955 514.5625,140.8125 L 493.71875,127.25 C 494.20268,127.04968 494.68854,126.84271 495.1875,126.59375 L 473.46875,114.90625 C 473.92019,114.66725 474.38216,114.41179 474.84375,114.125 L 452.25,104.25 C 452.69515,103.96004 453.1423,103.65561 453.59375,103.3125 L 430.0625,95.3125 C 430.47697,95.000565 430.89519,94.674059 431.3125,94.3125 L 407.375,88.46875 C 407.75264,88.121819 408.12466,87.739479 408.5,87.34375 L 384.15625,83.71875 C 384.50703,83.327124 384.84419,82.911622 385.1875,82.46875 L 360.625,81.125 C 360.93829,80.696201 361.23081,80.261673 361.53125,79.78125 L 336.71875,80.75 C 337.00206,80.299797 337.26372,79.843409 337.53125,79.34375 z M 335.1875,82.8125 C 339.77278,86.066557 350.77026,91.500103 358.875,83.1875 C 363.24354,86.876331 373.45528,92.979165 382.21875,85.59375 C 386.23263,89.680947 395.8789,96.71588 405.375,90.0625 C 408.87278,94.442168 417.7502,102.45074 427.90625,96.71875 C 431.05773,101.43542 439.39287,110.44537 449.90625,105.53125 C 452.71822,110.5286 460.18917,119.89371 471,116 C 473.3945,121.19633 480.08942,131.08229 491.28125,128.09375 C 493.16935,133.43528 499.02566,144.18638 510.40625,142.0625 C 511.87606,147.58337 516.78606,158.44759 528.21875,157.40625 C 529.18285,163.0324 533.0946,174.29268 544.6875,174.28125 C 545.05115,179.84007 547.74733,191.42265 559.375,192.5625 C 559.21256,198.07991 560.78109,209.87169 572.25,212.1875 C 571.56279,217.76044 572.00771,229.96758 583.15625,233.1875 C 581.97855,238.77244 581.46753,250.63256 592.125,254.875 C 590.42796,260.32651 588.79682,272.12599 599.125,277.375 C 596.93154,282.50901 594.08416,294.11146 603.9375,300.375 C 601.28131,305.36961 597.31401,316.97755 606.59375,323.9375 C 603.53139,328.77452 598.85933,339.77082 607.40625,347.46875 C 603.97029,352.02859 598.46387,362.59441 606.375,371.0625 C 602.56176,375.23581 595.81592,385.44119 603.0625,394.5 C 598.88425,398.39019 591.59147,407.82766 597.875,417.4375 C 593.35632,420.93606 585.26945,429.65707 590.6875,439.875 C 585.9416,442.80757 576.98875,450.61474 581.40625,461.40625 C 576.44231,463.85594 566.80609,470.76091 570.125,481.96875 C 564.88078,483.96082 554.24363,490.05343 556.625,501.4375 C 551.12874,503.01742 540.39722,508.11559 541.65625,519.53125 C 536.04363,520.59133 524.85263,524.66129 525.0625,536.25 C 519.50823,536.73164 507.94506,539.68647 507.03125,551.3125 C 501.38163,551.32352 489.25029,553.29017 487.5,564.8125 C 481.77536,564.40976 469.82942,565.51584 467.125,576.78125 C 461.60623,575.8793 449.66929,575.8859 445.90625,586.90625 C 440.43561,585.52528 428.22852,584.4504 423.65625,595.125 C 418.23868,593.2922 406.52707,591.37205 401.03125,601.4375 C 395.82128,599.11736 384.3339,596.11898 377.875,605.71875 C 373.05397,602.94003 361.93097,598.76633 354.5,607.75 C 349.89444,604.49323 338.92854,599.11411 330.84375,607.40625 C 326.47642,603.71846 316.26186,597.6242 307.5,605 C 303.49338,600.91658 293.84042,593.86332 284.34375,600.5 C 280.84556,596.12081 271.96421,588.11984 261.8125,593.84375 C 258.65948,589.12839 250.30992,580.14293 239.8125,585.03125 C 237.00053,580.03391 229.52958,570.66879 218.71875,574.5625 C 216.31972,569.36428 209.61322,559.52341 198.4375,562.5 C 196.54928,557.15816 190.69443,546.40569 179.3125,548.53125 C 177.84273,543.01055 172.93193,532.11568 161.5,533.15625 C 160.52702,527.51985 156.60303,516.27005 145.03125,516.28125 C 144.65972,510.71039 141.95022,499.13777 130.34375,498 C 130.49945,492.47013 128.91384,480.71931 117.46875,478.40625 C 118.15656,472.82847 117.70814,460.61323 106.53125,457.40625 C 107.70912,451.82055 108.25572,439.92842 97.59375,435.6875 C 99.289597,430.22848 100.92008,418.4303 90.59375,413.1875 C 92.78598,408.04552 95.618896,396.44475 85.78125,390.1875 C 88.437986,385.19185 92.412235,373.58445 83.125,366.625 C 86.188444,361.77502 90.855217,350.78001 82.3125,343.09375 C 85.748451,338.53391 91.254878,327.99934 83.34375,319.53125 C 87.155663,315.35938 93.890677,305.11902 86.65625,296.0625 C 90.835794,292.16784 98.123396,282.76016 91.84375,273.15625 C 96.362696,269.66046 104.43482,260.94832 99,250.71875 C 103.73588,247.80205 112.727,239.9954 108.3125,229.1875 C 113.27074,226.74276 122.92498,219.82453 119.625,208.625 C 124.88314,206.62066 135.49586,200.50896 133.09375,189.125 C 138.59097,187.54378 149.31968,182.47381 148.0625,171.0625 C 153.68281,169.99731 164.87622,165.90236 164.65625,154.3125 C 170.21587,153.83016 181.79209,150.90126 182.6875,139.25 C 188.341,139.23435 200.45379,137.26295 202.21875,125.78125 C 207.94436,126.18383 219.89109,125.08045 222.59375,113.8125 C 228.11476,114.7148 240.0546,114.69005 243.8125,103.65625 C 249.28463,105.03818 261.4948,106.13025 266.0625,95.4375 C 271.48031,97.271652 283.1932,99.20918 288.6875,89.125 C 293.89097,91.442251 305.34904,94.431431 311.8125,84.875 C 316.62133,87.653847 327.74461,91.813716 335.1875,82.8125 z"
           style="opacity:1;fill:#afb0b2;fill-opacity:1;fill-rule:nonzero;stroke:#0c2465;stroke-width:1;stroke-linecap:butt;stroke-linejoin:round;stroke-miterlimit:4;stroke-dasharray:none;stroke-opacity:1" />
        <path
           d="M 616.46754,345.29075 C 616.46754,444.88693 567.26852,529.75449 480.66234,579.55257 C 394.05618,629.35064 295.65812,629.35064 209.05195,579.55257 C 122.44578,529.75449 73.246742,444.88693 73.246742,345.29075 C 73.246742,245.69454 122.44578,160.82699 209.05195,111.02891 C 295.65812,61.230826 394.05618,61.230826 480.66234,111.02891 C 567.26852,160.82699 616.46754,245.69454 616.46754,345.29075 C 616.46754,345.29075 616.46754,345.29075 616.46754,345.29075"
           id="path18664"
           style="opacity:1;fill:none;fill-opacity:1;fill-rule:evenodd;stroke:#afb0b2;stroke-width:17;stroke-linecap:butt;stroke-linejoin:round;stroke-miterlimit:4;stroke-dasharray:none;stroke-opacity:1;display:inline" />
        <path
           style="opacity:1;fill:#afb0b2;fill-opacity:1;fill-rule:nonzero;stroke:#0c2465;stroke-width:1;stroke-linecap:butt;stroke-linejoin:round;stroke-miterlimit:4;stroke-dasharray:none;stroke-opacity:1"
           d="M 625.58816,356.72615 C 625.58816,356.72615 605.90612,371.5057 605.90612,371.5057 M 623.62788,381.61629 C 623.62788,381.61629 602.71566,394.76088 602.71566,394.76088 M 619.45929,406.55151 C 619.45929,406.55151 597.51166,417.62617 597.51166,417.62617 M 613.07692,431.03233 C 613.07692,431.03233 590.25926,439.9104 590.25926,439.9104 M 604.45808,454.83295 C 604.45808,454.83295 580.82062,461.69635 580.82062,461.69635 M 593.76727,477.43748 C 593.76727,477.43748 569.46561,482.18392 569.46561,482.18392 M 580.79492,499.1841 C 580.79492,499.1841 556.22476,501.50651 556.22476,501.50651 M 565.8219,519.59815 C 565.8219,519.59815 541.22958,519.51228 541.22958,519.51228 M 549.01331,538.51529 C 549.01331,538.51529 524.64049,536.08376 524.64049,536.08376 M 530.56353,555.81371 C 530.56353,555.81371 506.37873,551.29775 506.37873,551.29775 M 510.89435,571.20395 C 510.89435,571.20395 487.08832,564.69454 487.08832,564.69454 M 489.75779,585.0229 C 489.75779,585.0229 466.76713,576.51029 466.76713,576.51029 M 467.58736,597.09699 C 467.58736,597.09699 445.28745,586.72812 445.28745,586.72812 M 444.73067,607.14723 C 444.73067,607.14723 423.30046,594.94156 423.30046,594.94156 M 420.79594,615.28835 C 420.79594,615.28835 400.69819,601.19281 400.69819,601.19281 M 396.21325,621.26155 C 396.21325,621.26155 377.63492,605.36785 377.63492,605.36785 M 371.17259,624.94859 C 371.17259,624.94859 353.97362,607.36664 353.97362,607.36664 M 346.20359,626.234 C 346.20359,626.234 330.5464,607.10433 330.5464,607.10433 M 320.9118,625.14827 C 320.9118,625.14827 307.2442,604.65286 307.2442,604.65286 M 295.83924,621.69754 C 295.83924,621.69754 284.25773,600.06037 284.25773,600.06037 M 271.20198,615.95344 C 271.20198,615.95344 261.76034,593.41453 261.76034,593.41453 M 247.47602,608.13014 C 247.47602,608.13014 239.66219,584.64303 239.66219,584.64303 M 224.27469,598.11896 C 224.27469,598.11896 218.63091,574.16908 218.63091,574.16908 M 201.99999,586.24007 C 201.99999,586.24007 198.48794,562.05594 198.48794,562.05594 M 180.99483,572.76031 C 180.99483,572.76031 179.23708,548.09588 179.23708,548.09588 M 160.97694,557.33764 C 160.97694,557.33764 161.4977,532.74249 161.4977,532.74249 M 142.36897,540.21089 C 142.36897,540.21089 145.20997,515.8827 145.20997,515.8827 M 125.38283,521.45175 C 125.38283,521.45175 130.36851,497.34617 130.36851,497.34617 M 110.40256,501.4334 C 110.40256,501.4334 117.56448,477.72923 117.56448,477.72923 M 97.241552,479.80107 C 97.241552,479.80107 106.67473,456.99256 106.67473,456.99256 M 86.197803,457.01713 C 86.197803,457.01713 97.784893,435.31828 97.784893,435.31828 M 77.354728,433.30007 C 77.354728,433.30007 90.937004,412.90188 90.937004,412.90188 M 70.744242,408.87915 C 70.744242,408.87915 86.095476,389.63899 86.095476,389.63899 M 66.418842,384.27421 C 66.418842,384.27421 83.40185,366.32068 83.40185,366.32068 M 64.237102,359.10207 C 64.237102,359.10207 82.640115,342.83529 82.640115,342.83529 M 64.126122,333.85533 C 64.126122,333.85533 83.808163,319.07578 83.808163,319.07578 M 66.086404,308.96519 C 66.086404,308.96519 86.998624,295.8206 86.998624,295.8206 M 70.254998,284.02997 C 70.254998,284.02997 92.202625,272.95532 92.202625,272.95532 M 76.637365,259.54915 C 76.637365,259.54915 99.455028,250.67108 99.455028,250.67108 M 85.256207,235.74853 C 85.256207,235.74853 108.89367,228.88514 108.89367,228.88514 M 95.947021,213.144 C 95.947021,213.144 120.24868,208.39756 120.24868,208.39756 M 108.91937,191.39738 C 108.91937,191.39738 133.48953,189.07497 133.48953,189.07497 M 123.89239,170.98333 C 123.89239,170.98333 148.48471,171.06921 148.48471,171.06921 M 140.70099,152.06619 C 140.70099,152.06619 165.0738,154.49773 165.0738,154.49773 M 159.15077,134.76778 C 159.15077,134.76778 183.33556,139.28374 183.33556,139.28374 M 178.81994,119.37753 C 178.81994,119.37753 202.62598,125.88694 202.62598,125.88694 M 199.95651,105.55858 C 199.95651,105.55858 222.94717,114.07119 222.94717,114.07119 M 222.12693,93.484491 C 222.12693,93.484491 244.42685,103.85336 244.42685,103.85336 M 244.98362,83.434255 C 244.98362,83.434255 266.41384,95.639924 266.41384,95.639924 M 268.91836,75.293126 C 268.91836,75.293126 289.0161,89.388667 289.0161,89.388667 M 293.50104,69.319927 C 293.50104,69.319927 312.07938,85.213632 312.07938,85.213632 M 318.5417,65.63289 C 318.5417,65.63289 335.74067,83.214838 335.74067,83.214838 M 343.51071,64.347479 C 343.51071,64.347479 359.16789,83.477144 359.16789,83.477144 M 368.80249,65.43321 C 368.80249,65.43321 382.47009,85.928617 382.47009,85.928617 M 393.87505,68.883935 C 393.87505,68.883935 405.45656,90.52111 405.45656,90.52111 M 418.51231,74.628039 C 418.51231,74.628039 427.95395,97.166946 427.95395,97.166946 M 442.23827,82.451338 C 442.23827,82.451338 450.0521,105.93844 450.0521,105.93844 M 465.4396,92.462516 C 465.4396,92.462516 471.08338,116.4124 471.08338,116.4124 M 487.71431,104.3414 C 487.71431,104.3414 491.22635,128.52554 491.22635,128.52554 M 508.71947,117.82117 C 508.71947,117.82117 510.47721,142.48559 510.47721,142.48559 M 528.73735,133.24384 C 528.73735,133.24384 528.21659,157.83899 528.21659,157.83899 M 547.34532,150.37058 C 547.34532,150.37058 544.50432,174.69878 544.50432,174.69878 M 564.33146,169.12973 C 564.33146,169.12973 559.34578,193.23531 559.34578,193.23531 M 579.31173,189.14808 C 579.31173,189.14808 572.1498,212.85225 572.1498,212.85225 M 592.47274,210.78041 C 592.47274,210.78041 583.03955,233.58891 583.03955,233.58891 M 603.51648,233.56435 C 603.51648,233.56435 591.92939,255.2632 591.92939,255.2632 M 612.35956,257.28141 C 612.35956,257.28141 598.77728,277.6796 598.77728,277.6796 M 618.97004,281.70233 C 618.97004,281.70233 603.61881,300.94249 603.61881,300.94249 M 623.29544,306.30727 C 623.29544,306.30727 606.31243,324.2608 606.31243,324.2608 M 625.47718,331.47941 C 625.47718,331.47941 607.07417,347.74619 607.07417,347.74619"
           id="path7548" />
      </g>
      <g
         id="g6157">
        <path
           style="fill:#919cb9;fill-opacity:1;fill-rule:nonzero;stroke:#0c2465;stroke-width:2.3;stroke-linecap:butt;stroke-linejoin:round;stroke-miterlimit:4;stroke-dasharray:none;stroke-opacity:1;display:inline"
           d="M 490.87627,347.05153 C 532.13165,344.4182 562.7581,383.71059 562.7581,383.71059 L 535.84503,400.37159 C 523.1814,409.35641 528.14097,404.81644 516.43885,412.49862 L 485.73816,429.92567 C 501.09602,411.52631 507.98341,368.80482 490.87627,347.05153 z"
           id="path10934"
           sodipodi:nodetypes="cccccc" />
        <path
           sodipodi:type="arc"
           style="fill:none;fill-opacity:1;fill-rule:nonzero;stroke:#0c2465;stroke-width:22;stroke-linecap:butt;stroke-linejoin:miter;stroke-miterlimit:4;stroke-dasharray:none;stroke-opacity:1;display:inline"
           id="path10495"
           sodipodi:cx="394.78513"
           sodipodi:cy="123.7633"
           sodipodi:rx="29.533543"
           sodipodi:ry="29.533543"
           d="M 424.31867,123.7633 A 29.533543,29.533543 0 1 1 365.25158,123.7633 A 29.533543,29.533543 0 1 1 424.31867,123.7633 z"
           transform="matrix(0.6445735,-0.6445735,0.6445735,0.6445735,-126.75811,368.97257)" />
        <path
           sodipodi:type="arc"
           style="fill:#919cb9;fill-opacity:1;fill-rule:nonzero;stroke:#0c2465;stroke-width:2.1;stroke-linecap:butt;stroke-linejoin:round;stroke-miterlimit:4;stroke-dasharray:none;stroke-opacity:1;display:inline"
           id="path10903"
           sodipodi:cx="394.1824"
           sodipodi:cy="146.86777"
           sodipodi:rx="17.880852"
           sodipodi:ry="28.328093"
           d="M 412.06326,146.86777 A 17.880852,28.328093 0 1 1 376.30155,146.86777 A 17.880852,28.328093 0 1 1 412.06326,146.86777 z"
           transform="matrix(0.6316291,-0.6316291,0.7622712,0.7622712,-130.00517,354.74363)" />
        <g
           style="display:inline"
           id="g10905"
           transform="matrix(0.7071068,-0.7071068,0.7071068,0.7071068,-152.86277,386.13353)">
          <rect
             y="147.47049"
             x="286.49545"
             height="41.588036"
             width="207.9402"
             id="rect10499"
             style="opacity:1;fill:#0c2465;fill-opacity:1;fill-rule:nonzero;stroke:none;stroke-width:20;stroke-linecap:butt;stroke-linejoin:miter;stroke-miterlimit:4;stroke-dasharray:none;stroke-opacity:1" />
          <path
             sodipodi:nodetypes="ccccc"
             id="rect10501"
             d="M 450.66274,145.51163 L 460.50725,145.51163 L 459.10089,191.31876 L 450.66274,191.31876 L 450.66274,145.51163 z"
             style="fill:#919cb9;fill-opacity:1;fill-rule:nonzero;stroke:#0c2465;stroke-width:2.1;stroke-linecap:butt;stroke-linejoin:round;stroke-miterlimit:4;stroke-opacity:1" />
          <path
             sodipodi:nodetypes="ccccc"
             id="path10850"
             d="M 469.24681,145.71254 L 478.68951,145.71254 L 477.48406,191.11785 L 469.64863,191.11785 L 469.24681,145.71254 z"
             style="fill:#919cb9;fill-opacity:1;fill-rule:nonzero;stroke:#0c2465;stroke-width:2.1;stroke-linecap:butt;stroke-linejoin:round;stroke-miterlimit:4;stroke-opacity:1;display:inline" />
          <path
             sodipodi:nodetypes="ccccc"
             id="path10852"
             d="M 330.2684,145.51164 L 320.42389,145.51164 L 321.83025,191.31877 L 330.2684,191.31877 L 330.2684,145.51164 z"
             style="fill:#919cb9;fill-opacity:1;fill-rule:nonzero;stroke:#0c2465;stroke-width:2.1;stroke-linecap:butt;stroke-linejoin:round;stroke-miterlimit:4;stroke-opacity:1;display:inline" />
          <path
             sodipodi:nodetypes="ccccc"
             id="path10854"
             d="M 311.68433,145.71254 L 302.24163,145.71254 L 303.44708,191.11785 L 311.28251,191.11785 L 311.68433,145.71254 z"
             style="fill:#919cb9;fill-opacity:1;fill-rule:nonzero;stroke:#0c2465;stroke-width:2.1;stroke-linecap:butt;stroke-linejoin:round;stroke-miterlimit:4;stroke-opacity:1;display:inline" />
        </g>
        <path
           style="fill:#0c2465;fill-opacity:1;fill-rule:nonzero;stroke:#0c2465;stroke-width:2;stroke-linecap:butt;stroke-linejoin:round;stroke-miterlimit:4;stroke-dasharray:none;stroke-opacity:1;display:inline"
           d="M 357.00543,478.8971 C 354.3721,520.15248 393.6645,550.77893 393.6645,550.77893 L 407.28759,529.82914 C 476.00593,531.71685 463.26332,499.21148 519.41416,509.91031 L 439.75947,430.25563 L 421.65884,448.35626 L 448.77463,476.35594 C 462.38019,489.9615 420.54165,503.60298 426.27803,497.7088 L 439.42951,476.23432 C 421.03015,491.59218 378.75873,496.00424 357.00543,478.8971 z"
           id="path10912"
           sodipodi:nodetypes="cccccccccc" />
        <path
           style="fill:#0c2465;fill-opacity:1;fill-rule:nonzero;stroke:#0c2465;stroke-width:2;stroke-linecap:butt;stroke-linejoin:round;stroke-miterlimit:4;stroke-dasharray:none;stroke-opacity:1;display:inline"
           d="M 519.41416,509.91031 L 439.75947,430.25563 L 458.98525,411.02985 L 486.98493,438.14564 C 504.30348,456.81437 528.29633,409.57512 513.06341,364.5673 C 573.60429,421.21609 508.74456,459.98582 519.41416,509.91031 z"
           id="path10928"
           sodipodi:nodetypes="cccccc" />
        <path
           style="fill:#919cb9;fill-opacity:1;fill-rule:nonzero;stroke:#0c2465;stroke-width:2.3;stroke-linecap:butt;stroke-linejoin:round;stroke-miterlimit:4;stroke-dasharray:none;stroke-opacity:1;display:inline"
           d="M 357.00543,478.8971 C 354.3721,520.15248 393.6645,550.77893 393.6645,550.77893 L 407.28759,529.82914 C 414.41111,518.20261 421.63788,506.42727 426.27803,497.7088 L 439.42951,476.23432 C 421.03015,491.59218 378.75873,496.00424 357.00543,478.8971 z"
           id="path10940"
           sodipodi:nodetypes="cccccc" />
        <path
           style="fill:#0c2465;fill-opacity:1;fill-rule:nonzero;stroke:#0c2465;stroke-width:1.2;stroke-linecap:butt;stroke-linejoin:miter;stroke-miterlimit:4;stroke-dasharray:none;stroke-opacity:1;display:inline"
           d="M 387.81259,521.51476 C 386.3136,521.75075 384.53378,522.03982 380.41688,518.63535 C 365.74276,507.20603 370.27697,493.09202 401.34464,502.43321 C 401.26613,507.05195 393.25781,520.04381 387.81259,521.51476 z"
           id="path10942"
           sodipodi:nodetypes="cccc" />
      </g>
      <use
         height="574"
         width="574"
         transform="matrix(-1,0,0,1,694.9196,0)"
         id="use6499"
         xlink:href="#g6157"
         y="0"
         x="0" />
      <g
         id="g6459">
        <g
           id="g6177">
          <path
             transform="matrix(1.002994,0,0,1.002994,-56.821754,105.5685)"
             d="M 537.25371,227.98338 A 134.31343,134.31343 0 1 1 268.62685,227.98338 A 134.31343,134.31343 0 1 1 537.25371,227.98338 z"
             sodipodi:ry="134.31343"
             sodipodi:rx="134.31343"
             sodipodi:cy="227.98338"
             sodipodi:cx="402.94028"
             id="path11024"
             style="fill:#ffffff;fill-opacity:1;fill-rule:nonzero;stroke:#0c2465;stroke-width:7;stroke-linecap:butt;stroke-linejoin:miter;stroke-miterlimit:4;stroke-dasharray:none;stroke-opacity:1"
             sodipodi:type="arc" />
          <path
             transform="matrix(0.6691617,0,0,0.6691617,77.692725,181.67672)"
             d="M 537.25371,227.98338 A 134.31343,134.31343 0 1 1 268.62685,227.98338 A 134.31343,134.31343 0 1 1 537.25371,227.98338 z"
             sodipodi:ry="134.31343"
             sodipodi:rx="134.31343"
             sodipodi:cy="227.98338"
             sodipodi:cx="402.94028"
             id="path11026"
             style="fill:#ffffff;fill-opacity:1;fill-rule:nonzero;stroke:#0c2465;stroke-width:7;stroke-linecap:butt;stroke-linejoin:miter;stroke-miterlimit:4;stroke-dasharray:none;stroke-opacity:1;display:inline"
             sodipodi:type="arc" />
        </g>
        <g
           id="g6105">
          <path
             sodipodi:nodetypes="czszccc"
             id="path3285"
             d="M 282.22879,291.21875 C 303.94413,300.87001 283.4017,345.08985 295.29129,369.21875 C 307.18088,393.34765 347.1663,389.86412 347.16629,401.16833 C 347.1663,389.86412 387.15169,393.34765 399.04129,369.21875 C 410.93089,345.08985 390.38845,300.87001 412.10379,291.21875 L 347.16629,291.21875 L 282.22879,291.21875 z"
             style="fill:#ffffff;fill-opacity:1;fill-rule:nonzero;stroke:#0c2465;stroke-width:2;stroke-linecap:butt;stroke-linejoin:round;stroke-miterlimit:4;stroke-dasharray:none;stroke-opacity:1;display:inline" />
          <path
             sodipodi:nodetypes="ccccc"
             id="rect3289"
             d="M 333.85696,327.36216 L 343.57059,327.36216 L 343.57059,396.10319 L 333.85696,392.46934 L 333.85696,327.36216 z"
             style="fill:#ef3d41;fill-opacity:1;fill-rule:nonzero;stroke:none;stroke-width:2;stroke-linecap:butt;stroke-linejoin:round;stroke-miterlimit:4;stroke-opacity:1;display:inline" />
          <path
             sodipodi:nodetypes="ccccc"
             id="path3294"
             d="M 316.8687,327.36216 L 326.58233,327.36216 L 326.58233,389.92564 L 316.8687,387.10941 L 316.8687,327.36216 z"
             style="fill:#ef3d41;fill-opacity:1;fill-rule:nonzero;stroke:none;stroke-width:2;stroke-linecap:butt;stroke-linejoin:round;stroke-miterlimit:4;stroke-opacity:1;display:inline" />
          <path
             sodipodi:nodetypes="ccccc"
             id="path3296"
             d="M 299.88044,327.36216 L 309.59407,327.36216 L 309.59407,383.29386 L 299.88044,375.84446 L 299.88044,327.36216 z"
             style="fill:#ef3d41;fill-opacity:1;fill-rule:nonzero;stroke:none;stroke-width:2;stroke-linecap:butt;stroke-linejoin:round;stroke-miterlimit:4;stroke-opacity:1;display:inline" />
          <path
             sodipodi:nodetypes="ccccc"
             id="path3298"
             d="M 350.93607,327.36216 L 360.6497,327.36216 L 360.6497,392.46934 L 350.93607,396.10319 L 350.93607,327.36216 z"
             style="fill:#ef3d41;fill-opacity:1;fill-rule:nonzero;stroke:none;stroke-width:2;stroke-linecap:butt;stroke-linejoin:round;stroke-miterlimit:4;stroke-opacity:1;display:inline" />
          <path
             sodipodi:nodetypes="ccccc"
             id="path3300"
             d="M 367.83348,327.36216 L 377.54711,327.36216 L 377.54711,387.1094 L 367.83348,390.47071 L 367.83348,327.36216 z"
             style="fill:#ef3d41;fill-opacity:1;fill-rule:nonzero;stroke:none;stroke-width:2;stroke-linecap:butt;stroke-linejoin:round;stroke-miterlimit:4;stroke-opacity:1;display:inline" />
          <path
             sodipodi:nodetypes="ccccc"
             id="path3302"
             d="M 384.82174,327.36216 L 394.53537,327.36216 L 394.53537,376.02616 L 384.82174,383.92979 L 384.82174,327.36216 z"
             style="fill:#ef3d41;fill-opacity:1;fill-rule:nonzero;stroke:none;stroke-width:2;stroke-linecap:butt;stroke-linejoin:round;stroke-miterlimit:4;stroke-opacity:1;display:inline" />
          <path
             sodipodi:nodetypes="ccccc"
             id="path3335"
             d="M 292.16024,329.08258 L 402.18525,329.08258 C 397.93285,294.14394 412.10379,291.21875 412.10379,291.21875 L 282.22879,291.21875 C 282.22879,291.21875 297.10222,297.36198 292.16024,329.08258 z"
             style="fill:#0c2465;fill-opacity:1;fill-rule:nonzero;stroke:none;stroke-width:2;stroke-linecap:butt;stroke-linejoin:round;stroke-miterlimit:4;stroke-dasharray:none;stroke-opacity:1" />
          <path
             sodipodi:nodetypes="czszccc"
             id="path3337"
             d="M 282.22879,291.21875 C 303.94413,300.87001 283.4017,345.08985 295.29129,369.21875 C 307.18088,393.34765 347.1663,389.86412 347.16629,401.16833 C 347.1663,389.86412 387.15169,393.34765 399.04129,369.21875 C 410.93089,345.08985 390.38845,300.87001 412.10379,291.21875 L 347.16629,291.21875 L 282.22879,291.21875 z"
             style="fill:none;fill-opacity:1;fill-rule:nonzero;stroke:#0c2465;stroke-width:3;stroke-linecap:butt;stroke-linejoin:round;stroke-miterlimit:4;stroke-dasharray:none;stroke-opacity:1;display:inline" />
        </g>
        <g
           id="g5856">
          <path
             id="flowRoot3432"
             d="M 416.35921,406.66345 L 421.77886,399.67742 L 431.84309,400.89982 L 428.15747,391.45529 L 433.54481,384.51092 L 439.23644,401.60752 L 447.76413,408.22317 L 442.87243,414.52865 L 434.34475,407.913 L 416.35921,406.66345"
             style="font-size:36px;font-style:normal;font-variant:normal;font-weight:normal;font-stretch:normal;writing-mode:lr-tb;fill:#0c2465;fill-opacity:1;stroke:none;stroke-width:1px;stroke-linecap:butt;stroke-linejoin:miter;stroke-opacity:1;font-family:Arial Black;-inkscape-font-specification:'Arial Black,'" />
          <path
             id="flowRoot3446"
             d="M 255.83046,412.38245 L 250.22946,405.24807 L 246.11281,406.89323 L 241.08711,400.49164 L 267.3374,392.19702 L 272.6996,399.02723 L 258.41112,422.55844 L 253.26602,416.00477 L 255.83046,412.38245 M 259.18221,407.62803 L 264.71022,399.66776 L 255.67615,403.16212 L 259.18221,407.62803"
             style="font-size:36px;font-style:normal;font-variant:normal;font-weight:normal;font-stretch:normal;writing-mode:lr-tb;fill:#0c2465;fill-opacity:1;stroke:none;stroke-width:1px;stroke-linecap:butt;stroke-linejoin:miter;stroke-opacity:1;display:inline;font-family:Arial Black;-inkscape-font-specification:'Arial Black,'" />
          <path
             id="flowRoot3471"
             d="M 292.04318,416.47689 L 298.55905,421.02347 L 289.76764,433.62274 C 288.89585,434.87209 287.87402,435.9167 286.70213,436.75658 C 285.54651,437.59353 284.25896,438.13835 282.83947,438.39107 C 281.43624,438.64085 280.1608,438.6154 279.01312,438.31471 C 277.41594,437.90043 275.72839,437.07301 273.95048,435.83243 C 272.92215,435.11489 271.84803,434.25823 270.7281,433.26243 C 269.61777,432.27333 268.80169,431.28236 268.27988,430.2895 C 267.76475,429.28703 267.44095,428.15371 267.3085,426.88954 C 267.18565,425.63208 267.29099,424.49811 267.62454,423.48766 C 268.15972,421.86055 268.78942,420.52804 269.51367,419.4901 L 278.30508,406.89084 L 284.82095,411.43742 L 275.81831,424.33941 C 275.01359,425.49267 274.70038,426.61734 274.87868,427.71344 C 275.07327,428.80663 275.73758,429.74887 276.87163,430.54016 C 277.99604,431.32475 279.09668,431.62119 280.17358,431.4295 C 281.26674,431.23489 282.2224,430.55135 283.04054,429.37888 L 292.04318,416.47689"
             style="font-size:36px;font-style:normal;font-variant:normal;font-weight:normal;font-stretch:normal;writing-mode:lr-tb;fill:#0c2465;fill-opacity:1;stroke:none;stroke-width:1px;stroke-linecap:butt;stroke-linejoin:miter;stroke-opacity:1;display:inline;font-family:Arial Black;-inkscape-font-specification:'Arial Black,'" />
          <path
             id="flowRoot3479"
             d="M 300.66926,422.84506 L 308.91774,425.82859 L 310.51901,434.83817 L 317.38111,428.88985 L 325.54695,431.84348 L 313.76415,440.85337 L 317.49251,456.3336 L 309.07872,453.29028 L 307.11765,443.7767 L 299.50783,449.82843 L 291.14363,446.80305 L 304.0758,437.19949 L 300.66926,422.84506"
             style="font-size:36px;font-style:normal;font-variant:normal;font-weight:normal;font-stretch:normal;writing-mode:lr-tb;fill:#0c2465;fill-opacity:1;stroke:none;stroke-width:1px;stroke-linecap:butt;stroke-linejoin:miter;stroke-opacity:1;display:inline;font-family:Arial Black;-inkscape-font-specification:'Arial Black,'" />
          <path
             id="flowRoot3487"
             d="M 327.02273,431.71506 L 334.93566,432.75114 L 331.59008,458.30257 L 323.67716,457.2665 L 327.02273,431.71506"
             style="font-size:36px;font-style:normal;font-variant:normal;font-weight:normal;font-stretch:normal;writing-mode:lr-tb;fill:#0c2465;fill-opacity:1;stroke:none;stroke-width:1px;stroke-linecap:butt;stroke-linejoin:miter;stroke-opacity:1;display:inline;font-family:Arial Black;-inkscape-font-specification:'Arial Black,'" />
          <path
             id="flowRoot3495"
             d="M 338.59403,434.0421 L 346.54848,433.67562 L 347.44243,453.07887 L 359.85699,452.50691 L 360.14904,458.84589 L 339.78003,459.78433 L 338.59403,434.0421"
             style="font-size:36px;font-style:normal;font-variant:normal;font-weight:normal;font-stretch:normal;writing-mode:lr-tb;fill:#0c2465;fill-opacity:1;stroke:none;stroke-width:1px;stroke-linecap:butt;stroke-linejoin:miter;stroke-opacity:1;display:inline;font-family:Arial Black;-inkscape-font-specification:'Arial Black,'" />
          <path
             id="flowRoot3503"
             d="M 361.9987,431.79706 L 369.91692,430.80217 L 373.12948,456.37067 L 365.21126,457.36556 L 361.9987,431.79706"
             style="font-size:36px;font-style:normal;font-variant:normal;font-weight:normal;font-stretch:normal;writing-mode:lr-tb;fill:#0c2465;fill-opacity:1;stroke:none;stroke-width:1px;stroke-linecap:butt;stroke-linejoin:miter;stroke-opacity:1;display:inline;font-family:Arial Black;-inkscape-font-specification:'Arial Black,'" />
          <path
             id="flowRoot3511"
             d="M 395.84932,444.98642 L 387.34723,448.14632 L 387.65934,452.56854 L 380.03053,455.40388 L 380.13175,427.87447 L 388.27136,424.84929 L 406.32769,445.63022 L 398.51763,448.53292 L 395.84932,444.98642 M 392.34276,440.34501 L 386.44623,432.65373 L 387.02071,442.32301 L 392.34276,440.34501"
             style="font-size:36px;font-style:normal;font-variant:normal;font-weight:normal;font-stretch:normal;writing-mode:lr-tb;fill:#0c2465;fill-opacity:1;stroke:none;stroke-width:1px;stroke-linecap:butt;stroke-linejoin:miter;stroke-opacity:1;display:inline;font-family:Arial Black;-inkscape-font-specification:'Arial Black,'" />
          <path
             id="flowRoot3519"
             d="M 413.99146,440.64449 L 398.26463,420.2304 L 408.77803,412.13097 C 410.72754,410.62913 412.34624,409.64836 413.63416,409.18867 C 414.92208,408.72906 416.23211,408.71096 417.56425,409.13437 C 418.88924,409.54857 420.05236,410.40548 421.05363,411.70512 C 421.92614,412.83772 422.43928,414.00306 422.59307,415.20114 C 422.73969,416.39 422.58728,417.5651 422.13585,418.72648 C 421.84772,419.46623 421.3171,420.30401 420.54398,421.23984 C 421.48903,420.91122 422.22984,420.73992 422.76643,420.72592 C 423.12724,420.71425 423.73678,420.81419 424.59507,421.02576 C 425.46261,421.23021 426.08509,421.42375 426.46249,421.60637 L 434.07135,425.17513 L 426.94174,430.66772 L 418.76587,427.02541 C 417.71662,426.54676 416.93192,426.31548 416.41178,426.33155 C 415.71373,426.36638 415.07693,426.60549 414.50136,427.04888 L 413.94436,427.478 L 420.32734,435.76339 L 413.99146,440.64449 M 410.97278,423.62076 L 413.63247,421.57176 C 413.92024,421.35008 414.40573,420.82813 415.08891,420.00593 C 415.44229,419.60058 415.61664,419.12602 415.61196,418.58226 C 415.61656,418.0314 415.44722,417.53316 415.10394,417.08753 C 414.59615,416.42844 413.99751,416.08341 413.30798,416.05245 C 412.61846,416.02154 411.69814,416.44949 410.547,417.33628 L 407.77592,419.47109 L 410.97278,423.62076"
             style="font-size:36px;font-style:normal;font-variant:normal;font-weight:normal;font-stretch:normal;writing-mode:lr-tb;fill:#0c2465;fill-opacity:1;stroke:none;stroke-width:1px;stroke-linecap:butt;stroke-linejoin:miter;stroke-opacity:1;display:inline;font-family:Arial Black;-inkscape-font-specification:'Arial Black,'" />
        </g>
        <g
           id="g6443">
          <path
             id="text5218"
             d="M -338.26627,215.57162 L -330.32095,215.57162 L -330.32095,230.93491 C -330.32098,232.45835 -330.56121,233.89976 -331.04166,235.25912 C -331.51043,236.60679 -332.25457,237.79038 -333.27408,238.80991 C -334.28191,239.81772 -335.34246,240.5267 -336.45572,240.93686 C -338.00261,241.51108 -339.86003,241.79819 -342.02798,241.79819 C -343.28191,241.79819 -344.653,241.7103 -346.14127,241.53452 C -347.61784,241.35873 -348.85417,241.01303 -349.85025,240.49741 C -350.84635,239.97006 -351.76041,239.22592 -352.59244,238.26498 C -353.41275,237.30405 -353.97525,236.31382 -354.27994,235.29428 C -354.77213,233.65366 -355.01822,232.20054 -355.01822,230.93491 L -355.01822,215.57162 L -347.07291,215.57162 L -347.07291,231.30405 C -347.07292,232.71031 -346.6862,233.81187 -345.91275,234.60873 C -345.12761,235.3939 -344.04362,235.78647 -342.6608,235.78647 C -341.28972,235.78647 -340.21746,235.39976 -339.444,234.62631 C -338.65886,233.84116 -338.26629,232.73374 -338.26627,231.30405 L -338.26627,215.57162"
             style="font-size:36px;font-style:normal;font-variant:normal;font-weight:normal;font-stretch:normal;text-align:start;line-height:125%;writing-mode:lr-tb;text-anchor:start;fill:#0c2465;fill-opacity:1;stroke:none;stroke-width:1px;stroke-linecap:butt;stroke-linejoin:miter;stroke-opacity:1;display:inline;font-family:Arial Black;-inkscape-font-specification:'Arial Black,'"
             transform="matrix(-2.2234662e-2,-0.9997528,0.9997528,-2.2234662e-2,0,0)" />
          <path
             id="text5742"
             d="M -314.10065,254.09619 L -306.45416,254.09619 L -306.45416,261.26807 L -314.10065,261.26807 L -314.10065,254.09619"
             style="font-size:36px;font-style:normal;font-variant:normal;font-weight:normal;font-stretch:normal;text-align:start;line-height:125%;writing-mode:lr-tb;text-anchor:start;fill:#0c2465;fill-opacity:1;stroke:none;stroke-width:1px;stroke-linecap:butt;stroke-linejoin:miter;stroke-opacity:1;display:inline;font-family:Arial Black;-inkscape-font-specification:'Arial Black,'"
             transform="matrix(3.7392486e-2,-0.9993007,0.9993007,3.7392486e-2,0,0)" />
          <path
             id="text5746"
             d="M -244.01994,311.99124 L -236.44377,311.51663 C -236.27972,312.74711 -235.94573,313.68461 -235.44182,314.32913 C -234.62152,315.37211 -233.44964,315.89359 -231.92619,315.89359 C -230.78949,315.89359 -229.91644,315.62992 -229.30705,315.10257 C -228.68598,314.56351 -228.37543,313.94242 -228.37541,313.23929 C -228.37543,312.57133 -228.6684,311.97367 -229.25432,311.44632 C -229.84027,310.91899 -231.19964,310.42094 -233.33244,309.95218 C -236.82464,309.16703 -239.31487,308.12407 -240.80315,306.82327 C -242.30315,305.52251 -243.05315,303.8643 -243.05315,301.84866 C -243.05315,300.52446 -242.67229,299.27642 -241.91057,298.10452 C -241.13713,296.92095 -239.98284,295.99517 -238.44768,295.32718 C -236.90081,294.64752 -234.78558,294.30767 -232.10197,294.30765 C -228.80902,294.30767 -226.30121,294.92291 -224.57854,296.15335 C -222.84418,297.37212 -221.81294,299.31743 -221.48479,301.98929 L -228.99065,302.42874 C -229.18988,301.2686 -229.61176,300.42486 -230.25627,299.89749 C -230.8891,299.37017 -231.768,299.1065 -232.89299,299.10648 C -233.81878,299.1065 -234.51605,299.30572 -234.98479,299.70413 C -235.45355,300.09087 -235.68792,300.56548 -235.68791,301.12796 C -235.68792,301.53814 -235.49456,301.90728 -235.10783,302.23538 C -234.73284,302.57524 -233.84222,302.89165 -232.43596,303.1846 C -228.95551,303.93462 -226.46527,304.69634 -224.96526,305.46976 C -223.45356,306.23149 -222.35786,307.18071 -221.67815,308.31741 C -220.98676,309.45414 -220.64106,310.72563 -220.64104,312.13187 C -220.64106,313.78422 -221.09809,315.30765 -222.01213,316.70218 C -222.92622,318.09671 -224.20356,319.15726 -225.84416,319.88382 C -227.4848,320.59866 -229.55316,320.95608 -232.04924,320.95609 C -236.43206,320.95608 -239.46721,320.11234 -241.15471,318.42484 C -242.84221,316.73734 -243.79729,314.59281 -244.01994,311.99124"
             style="font-size:36px;font-style:normal;font-variant:normal;font-weight:normal;font-stretch:normal;text-align:start;line-height:125%;writing-mode:lr-tb;text-anchor:start;fill:#0c2465;fill-opacity:1;stroke:none;stroke-width:1px;stroke-linecap:butt;stroke-linejoin:miter;stroke-opacity:1;display:inline;font-family:Arial Black;-inkscape-font-specification:'Arial Black,'"
             transform="matrix(0.2461505,-0.9692316,0.9692316,0.2461505,0,0)" />
          <path
             id="text5750"
             d="M -106.79448,367.99054 L -99.147995,367.99054 L -99.147995,375.16241 L -106.79448,375.16241 L -106.79448,367.99054"
             style="font-size:36px;font-style:normal;font-variant:normal;font-weight:normal;font-stretch:normal;text-align:start;line-height:125%;writing-mode:lr-tb;text-anchor:start;fill:#0c2465;fill-opacity:1;stroke:none;stroke-width:1px;stroke-linecap:butt;stroke-linejoin:miter;stroke-opacity:1;display:inline;font-family:Arial Black;-inkscape-font-specification:'Arial Black,'"
             transform="matrix(0.5427297,-0.8399074,0.8399074,0.5427297,0,0)" />
          <path
             id="text5754"
             d="M -1.8248024,373.17636 L 5.1537132,375.28574 C 4.6849369,377.24277 3.9466564,378.87754 2.9388695,380.19003 C 1.9310334,381.50254 0.67712843,382.49277 -0.82284927,383.16074 C -2.3111498,383.8287 -4.2095854,384.16269 -6.5181618,384.16269 C -9.3189553,384.16269 -11.609969,383.75839 -13.391209,382.9498 C -15.160746,382.12949 -16.690042,380.69394 -17.979099,378.64316 C -19.268164,376.59238 -19.912695,373.96739 -19.912693,370.76816 C -19.912695,366.50255 -18.781836,363.22716 -16.520115,360.94199 C -14.246685,358.64514 -11.03575,357.4967 -6.8873024,357.49667 C -3.6412266,357.4967 -1.092401,358.15295 0.75918198,359.46542 C 2.622439,360.77795 4.0052501,362.79357 4.9076195,365.5123 L -2.1236305,367.07675 C -2.3697435,366.29161 -2.6275558,365.71739 -2.897068,365.3541 C -3.3423988,364.74474 -3.8873201,364.27599 -4.5318336,363.94785 C -5.1763813,363.61974 -5.8970837,363.45568 -6.693943,363.45566 C -8.4986436,363.45568 -9.8814548,364.18224 -10.842381,365.63535 C -11.568953,366.71349 -11.932234,368.40685 -11.932224,370.71542 C -11.932234,373.57481 -11.498641,375.5377 -10.631443,376.6041 C -9.7642674,377.65879 -8.5455186,378.18613 -6.975193,378.18613 C -5.4517717,378.18613 -4.3033353,377.7584 -3.5298805,376.90292 C -2.7447431,376.04746 -2.1763843,374.80528 -1.8248024,373.17636"
             style="font-size:36px;font-style:normal;font-variant:normal;font-weight:normal;font-stretch:normal;text-align:start;line-height:125%;writing-mode:lr-tb;text-anchor:start;fill:#0c2465;fill-opacity:1;stroke:none;stroke-width:1px;stroke-linecap:butt;stroke-linejoin:miter;stroke-opacity:1;display:inline;font-family:Arial Black;-inkscape-font-specification:'Arial Black,'"
             transform="matrix(0.6874405,-0.7262407,0.7262407,0.6874405,0,0)" />
          <path
             id="text5758"
             d="M 55.471184,367.9415 C 55.471182,363.73448 56.643056,360.4591 58.986809,358.11533 C 61.330551,355.7716 64.59422,354.59973 68.777824,354.5997 C 73.066868,354.59973 76.371552,355.75402 78.691887,358.06259 C 81.012172,360.35949 82.172327,363.58214 82.172356,367.73056 C 82.172327,370.74229 81.662562,373.21494 80.643059,375.14853 C 79.63522,377.07041 78.170378,378.57041 76.248528,379.64853 C 74.338351,380.71494 71.953588,381.24814 69.094231,381.24814 C 66.187968,381.24814 63.779768,380.78525 61.869621,379.85947 C 59.971178,378.93369 58.430164,377.46884 57.246574,375.46494 C 56.062978,373.46104 55.471182,370.95323 55.471184,367.9415 M 63.434074,367.97665 C 63.434065,370.57823 63.914533,372.44737 64.875481,373.58408 C 65.848125,374.7208 67.166483,375.28916 68.830559,375.28915 C 70.54148,375.28916 71.865697,374.73252 72.803215,373.61923 C 73.740695,372.50596 74.209445,370.50791 74.209465,367.62509 C 74.209445,365.19933 73.717258,363.4298 72.732903,362.3165 C 71.760228,361.19152 70.436011,360.62902 68.760246,360.629 C 67.154764,360.62902 65.865703,361.19738 64.893059,362.33408 C 63.920392,363.47081 63.434065,365.35167 63.434074,367.97665"
             style="font-size:36px;font-style:normal;font-variant:normal;font-weight:normal;font-stretch:normal;text-align:start;line-height:125%;writing-mode:lr-tb;text-anchor:start;fill:#0c2465;fill-opacity:1;stroke:none;stroke-width:1px;stroke-linecap:butt;stroke-linejoin:miter;stroke-opacity:1;display:inline;font-family:Arial Black;-inkscape-font-specification:'Arial Black,'"
             transform="matrix(0.7723693,-0.6351738,0.6351738,0.7723693,0,0)" />
          <path
             id="text5762"
             d="M 229.39439,324.33667 L 220.32408,324.33667 L 219.07603,328.59058 L 210.93736,328.59058 L 220.62291,302.82104 L 229.3065,302.82104 L 238.99205,328.59058 L 230.66002,328.59058 L 229.39439,324.33667 M 227.72447,318.7644 L 224.87682,309.50073 L 222.04674,318.7644 L 227.72447,318.7644"
             style="font-size:36px;font-style:normal;font-variant:normal;font-weight:normal;font-stretch:normal;text-align:start;line-height:125%;writing-mode:lr-tb;text-anchor:start;fill:#0c2465;fill-opacity:1;stroke:none;stroke-width:1px;stroke-linecap:butt;stroke-linejoin:miter;stroke-opacity:1;display:inline;font-family:Arial Black;-inkscape-font-specification:'Arial Black,'"
             transform="matrix(0.9485883,-0.3165126,0.3165126,0.9485883,0,0)" />
          <path
             id="text5766"
             d="M 321.18887,239.35204 L 328.76505,238.87743 C 328.9291,240.1079 329.26308,241.0454 329.767,241.68993 C 330.5873,242.7329 331.75917,243.25438 333.28262,243.25438 C 334.41933,243.25438 335.29237,242.99071 335.90176,242.46336 C 336.52284,241.92431 336.83339,241.30321 336.8334,240.60008 C 336.83339,239.93212 336.54042,239.33447 335.9545,238.80711 C 335.36855,238.27978 334.00917,237.78173 331.87637,237.31297 C 328.38418,236.52783 325.89395,235.48486 324.40567,234.18407 C 322.90567,232.8833 322.15567,231.2251 322.15567,229.20946 C 322.15567,227.88526 322.53653,226.63721 323.29825,225.46532 C 324.07168,224.28175 325.22598,223.35597 326.76114,222.68797 C 328.30801,222.00831 330.42324,221.66847 333.10684,221.66844 C 336.39979,221.66847 338.9076,222.2837 340.63028,223.51414 C 342.36463,224.73292 343.39588,226.67823 343.72403,229.35008 L 336.21817,229.78954 C 336.01894,228.6294 335.59706,227.78565 334.95255,227.25829 C 334.31972,226.73096 333.44081,226.46729 332.31583,226.46727 C 331.39003,226.46729 330.69277,226.66651 330.22403,227.06493 C 329.75527,227.45167 329.52089,227.92627 329.5209,228.48875 C 329.52089,228.89893 329.71425,229.26807 330.10098,229.59618 C 330.47597,229.93604 331.3666,230.25244 332.77286,230.54539 C 336.25331,231.29541 338.74354,232.05713 340.24356,232.83055 C 341.75526,233.59228 342.85096,234.5415 343.53067,235.67821 C 344.22205,236.81494 344.56775,238.08642 344.56778,239.49266 C 344.56775,241.14501 344.11072,242.66845 343.19669,244.06297 C 342.2826,245.45751 341.00526,246.51805 339.36465,247.24461 C 337.72401,247.95946 335.65565,248.31688 333.15958,248.31688 C 328.77676,248.31688 325.7416,247.47313 324.05411,245.78563 C 322.36661,244.09813 321.41153,241.9536 321.18887,239.35204"
             style="font-size:36px;font-style:normal;font-variant:normal;font-weight:normal;font-stretch:normal;text-align:start;line-height:125%;writing-mode:lr-tb;text-anchor:start;fill:#0c2465;fill-opacity:1;stroke:none;stroke-width:1px;stroke-linecap:butt;stroke-linejoin:miter;stroke-opacity:1;display:inline;font-family:Arial Black;-inkscape-font-specification:'Arial Black,'"
             transform="matrix(0.9993905,-3.4910059e-2,3.4910059e-2,0.9993905,0,0)" />
          <path
             id="text5770"
             d="M 388.22079,145.3976 L 412.42587,145.3976 L 412.42587,151.76088 L 404.30478,151.76088 L 404.30478,171.16713 L 396.34189,171.16713 L 396.34189,151.76088 L 388.22079,151.76088 L 388.22079,145.3976"
             style="font-size:36px;font-style:normal;font-variant:normal;font-weight:normal;font-stretch:normal;text-align:start;line-height:125%;writing-mode:lr-tb;text-anchor:start;fill:#0c2465;fill-opacity:1;stroke:none;stroke-width:1px;stroke-linecap:butt;stroke-linejoin:miter;stroke-opacity:1;display:inline;font-family:Arial Black;-inkscape-font-specification:'Arial Black,'"
             transform="matrix(0.9852253,0.1712633,-0.1712633,0.9852253,0,0)" />
          <path
             id="text5774"
             d="M 467.93747,-26.785538 L 467.93747,-32.146866 L 480.24216,-32.146866 L 480.24216,-21.160538 C 477.88666,-19.555067 475.80073,-18.459365 473.98434,-17.873428 C 472.17964,-17.29921 470.03511,-17.012101 467.55075,-17.0121 C 464.49214,-17.012101 461.99605,-17.533585 460.06247,-18.576553 C 458.14059,-19.61952 456.64645,-21.172253 455.58005,-23.234756 C 454.52536,-25.297249 453.99801,-27.664434 453.99802,-30.336319 C 453.99801,-33.148803 454.57809,-35.59216 455.73825,-37.666397 C 456.8984,-39.752312 458.59762,-41.334342 460.83591,-42.412491 C 462.58199,-43.244496 464.9316,-43.660512 467.88474,-43.660538 C 470.73237,-43.660512 472.85932,-43.402699 474.26559,-42.8871 C 475.68354,-42.37145 476.85541,-41.568717 477.78122,-40.478897 C 478.71869,-39.40075 479.42182,-38.029658 479.89059,-36.365616 L 472.20895,-34.994522 C 471.89253,-35.96716 471.35347,-36.7113 470.59177,-37.226944 C 469.84175,-37.742549 468.88081,-38.000361 467.70895,-38.000381 C 465.96285,-38.000361 464.56832,-37.390987 463.52536,-36.172256 C 462.4941,-34.965208 461.97848,-33.049194 461.97849,-30.42421 C 461.97848,-27.635137 462.49996,-25.642951 463.54294,-24.447647 C 464.59761,-23.252329 466.06246,-22.654673 467.93747,-22.654678 C 468.82808,-22.654673 469.67769,-22.783579 470.4863,-23.041397 C 471.29487,-23.299204 472.22065,-23.738656 473.26364,-24.359756 L 473.26364,-26.785538 L 467.93747,-26.785538"
             style="font-size:36px;font-style:normal;font-variant:normal;font-weight:normal;font-stretch:normal;text-align:start;line-height:125%;writing-mode:lr-tb;text-anchor:start;fill:#0c2465;fill-opacity:1;stroke:none;stroke-width:1px;stroke-linecap:butt;stroke-linejoin:miter;stroke-opacity:1;display:inline;font-family:Arial Black;-inkscape-font-specification:'Arial Black,'"
             transform="matrix(0.8271294,0.5620116,-0.5620116,0.8271294,0,0)" />
          <path
             id="text5778"
             d="M 484.55502,-151.19428 L 492.50034,-151.19428 L 492.50034,-135.831 C 492.50031,-134.30755 492.26007,-132.86615 491.77963,-131.50678 C 491.31086,-130.15912 490.56672,-128.97553 489.54721,-127.956 C 488.53937,-126.94819 487.47883,-126.2392 486.36557,-125.82905 C 484.81868,-125.25483 482.96126,-124.96772 480.7933,-124.96772 C 479.53938,-124.96772 478.16829,-125.05561 476.68002,-125.23139 C 475.20345,-125.40717 473.96712,-125.75288 472.97104,-126.2685 C 471.97494,-126.79584 471.06088,-127.53998 470.22885,-128.50092 C 469.40853,-129.46186 468.84604,-130.45209 468.54135,-131.47163 C 468.04916,-133.11224 467.80307,-134.56537 467.80307,-135.831 L 467.80307,-151.19428 L 475.74838,-151.19428 L 475.74838,-135.46186 C 475.74837,-134.0556 476.13509,-132.95404 476.90854,-132.15717 C 477.69368,-131.37201 478.77767,-130.97943 480.16049,-130.97944 C 481.53157,-130.97943 482.60383,-131.36615 483.37729,-132.1396 C 484.16243,-132.92474 484.555,-134.03216 484.55502,-135.46186 L 484.55502,-151.19428"
             style="font-size:36px;font-style:normal;font-variant:normal;font-weight:normal;font-stretch:normal;text-align:start;line-height:125%;writing-mode:lr-tb;text-anchor:start;fill:#0c2465;fill-opacity:1;stroke:none;stroke-width:1px;stroke-linecap:butt;stroke-linejoin:miter;stroke-opacity:1;display:inline;font-family:Arial Black;-inkscape-font-specification:'Arial Black,'"
             transform="matrix(0.6810717,0.7322167,-0.7322167,0.6810717,0,0)" />
          <path
             id="text5782"
             d="M 465.45563,-246.22368 L 456.38531,-246.22368 L 455.13727,-241.96977 L 446.9986,-241.96977 L 456.68414,-267.7393 L 465.36774,-267.7393 L 475.05328,-241.96977 L 466.72125,-241.96977 L 465.45563,-246.22368 M 463.78571,-251.79594 L 460.93805,-261.05962 L 458.10797,-251.79594 L 463.78571,-251.79594"
             style="font-size:36px;font-style:normal;font-variant:normal;font-weight:normal;font-stretch:normal;text-align:start;line-height:125%;writing-mode:lr-tb;text-anchor:start;fill:#0c2465;fill-opacity:1;stroke:none;stroke-width:1px;stroke-linecap:butt;stroke-linejoin:miter;stroke-opacity:1;display:inline;font-family:Arial Black;-inkscape-font-specification:'Arial Black,'"
             transform="matrix(0.4831863,0.8755176,-0.8755176,0.4831863,0,0)" />
          <path
             id="text5786"
             d="M 392.6683,-361.30557 L 392.6683,-387.0751 L 405.93979,-387.0751 C 408.40071,-387.07508 410.28157,-386.86414 411.58237,-386.44229 C 412.88313,-386.02039 413.93195,-385.23524 414.72885,-384.08682 C 415.5257,-382.95008 415.92414,-381.56141 415.92416,-379.92081 C 415.92414,-378.4911 415.61945,-377.25478 415.0101,-376.21182 C 414.4007,-375.18056 413.56281,-374.34267 412.49643,-373.69815 C 411.81672,-373.28798 410.88508,-372.94814 409.70151,-372.67862 C 410.65071,-372.3622 411.34211,-372.0458 411.77573,-371.7294 C 412.06867,-371.51845 412.49055,-371.06728 413.04135,-370.37589 C 413.60383,-369.68447 413.97883,-369.15127 414.16635,-368.77628 L 418.01596,-361.30557 L 409.01596,-361.30557 L 404.76205,-369.18057 C 404.22298,-370.20009 403.74251,-370.8622 403.32065,-371.1669 C 402.74642,-371.56533 402.09603,-371.76455 401.36948,-371.76456 L 400.66635,-371.76456 L 400.66635,-361.30557 L 392.6683,-361.30557 M 400.66635,-376.6337 L 404.02377,-376.6337 C 404.38704,-376.63368 405.09016,-376.75087 406.13315,-376.98526 C 406.66048,-377.09071 407.08821,-377.36024 407.41635,-377.79385 C 407.75618,-378.22743 407.9261,-378.72548 407.92612,-379.28799 C 407.9261,-380.12001 407.66243,-380.75868 407.1351,-381.20401 C 406.60774,-381.6493 405.61751,-381.87196 404.1644,-381.87198 L 400.66635,-381.87198 L 400.66635,-376.6337"
             style="font-size:36px;font-style:normal;font-variant:normal;font-weight:normal;font-stretch:normal;text-align:start;line-height:125%;writing-mode:lr-tb;text-anchor:start;fill:#0c2465;fill-opacity:1;stroke:none;stroke-width:1px;stroke-linecap:butt;stroke-linejoin:miter;stroke-opacity:1;display:inline;font-family:Arial Black;-inkscape-font-specification:'Arial Black,'"
             transform="matrix(0.2284983,0.9735443,-0.9735443,0.2284983,0,0)" />
          <path
             id="text5790"
             d="M 312.01184,-482.09979 L 323.84192,-482.09979 C 326.17393,-482.09977 328.05479,-481.78336 329.4845,-481.15057 C 330.92588,-480.51774 332.11533,-479.60953 333.05286,-478.42596 C 333.99033,-477.24235 334.67002,-475.8654 335.09192,-474.2951 C 335.51377,-472.72478 335.7247,-471.06072 335.72473,-469.30292 C 335.7247,-466.549 335.4083,-464.41033 334.77551,-462.8869 C 334.15439,-461.37518 333.28721,-460.10369 332.17395,-459.07245 C 331.06065,-458.05292 329.86534,-457.37323 328.58801,-457.03339 C 326.8419,-456.56464 325.25987,-456.33026 323.84192,-456.33026 L 312.01184,-456.33026 L 312.01184,-482.09979 M 319.97473,-476.26385 L 319.97473,-462.18378 L 321.9259,-462.18378 C 323.58995,-462.18377 324.77354,-462.36541 325.47668,-462.7287 C 326.17979,-463.10369 326.73057,-463.74822 327.12903,-464.66229 C 327.52745,-465.58806 327.72667,-467.0822 327.72668,-469.14471 C 327.72667,-471.87517 327.28135,-473.74431 326.39075,-474.75214 C 325.50011,-475.75993 324.02354,-476.26384 321.96106,-476.26385 L 319.97473,-476.26385"
             style="font-size:36px;font-style:normal;font-variant:normal;font-weight:normal;font-stretch:normal;text-align:start;line-height:125%;writing-mode:lr-tb;text-anchor:start;fill:#0c2465;fill-opacity:1;stroke:none;stroke-width:1px;stroke-linecap:butt;stroke-linejoin:miter;stroke-opacity:1;display:inline;font-family:Arial Black;-inkscape-font-specification:'Arial Black,'"
             transform="matrix(-2.9050403e-2,0.9995779,-0.9995779,-2.9050403e-2,0,0)" />
        </g>
      </g>
    </g>
  </g>
</svg>
